<svg id="Layer_1" data-name="Layer 1" xmlns="http://www.w3.org/2000/svg" viewBox="0 0 55 52.33"><defs><style>.cls-1{fill:#474747;}</style></defs><title>Breakpoints_</title><path id="Laptop" class="cls-1" d="M38,29.53a2.25,2.25,0,0,1-2.21,2.27H19.32a2.25,2.25,0,0,1-2.21-2.27V19.94a2.25,2.25,0,0,1,2.21-2.27H35.81A2.25,2.25,0,0,1,38,19.94v9.59Zm-1.91-.11V19.94a0.44,0.44,0,0,0-.41-0.47H19.35a0.46,0.46,0,0,0-.46.46h0v9.48a0.46,0.46,0,0,0,.44.47H35.65a0.43,0.43,0,0,0,.46-0.47h0Zm3.39,4a1.27,1.27,0,0,1-1.24,1.27H16.74A1.27,1.27,0,0,1,15.5,33.4V32.46h24V33.4h0Z"/><path class="cls-1" d="M27.37,50.74A24.63,24.63,0,0,1,2.75,26.38V26.11A24.5,24.5,0,0,1,27.11,1.48h0A24.63,24.63,0,0,1,45,43.34a24.47,24.47,0,0,1-17.34,7.4H27.37ZM27.12,3.48A22.5,22.5,0,0,0,4.75,26.11v0.25A22.66,22.66,0,0,0,27.38,48.74h0.25a22.63,22.63,0,0,0-.24-45.26H27.12Z"/></svg>