<svg id="Layer_1" data-name="Layer 1" xmlns="http://www.w3.org/2000/svg" viewBox="0 0 55 52.33"><defs><style>.cls-1{fill:#474747;}</style></defs><title>Breakpoints_</title><path class="cls-1" d="M27.37,50.74A24.63,24.63,0,0,1,2.75,26.38V26.11A24.5,24.5,0,0,1,27.11,1.48h0A24.63,24.63,0,0,1,45,43.34a24.47,24.47,0,0,1-17.34,7.4H27.37ZM27.12,3.48A22.5,22.5,0,0,0,4.75,26.11v0.25A22.66,22.66,0,0,0,27.38,48.74h0.25a22.63,22.63,0,0,0-.24-45.26H27.12Z"/><path id="Tablet" class="cls-1" d="M38.27,39.61a2.65,2.65,0,0,0,2.62-2.68h0V15.3a2.65,2.65,0,0,0-2.61-2.69H17.5a2.65,2.65,0,0,0-2.62,2.68h0V36.92a2.65,2.65,0,0,0,2.61,2.69H38.27Zm-9.89-1.36a1.36,1.36,0,1,1,1.32-1.4v0a1.35,1.35,0,0,1-1.32,1.36h0ZM17.5,15.3H38.27V34.2H17.5V15.3Z"/></svg>